# xmcd
#
# Track frame offsets:
#	183
#	16665
#	27708
#	44258
#	63603
#	77560
#	90188
#	101620
#	114683
#	128175
#	140468
#	150518
#	167200
#	182053
#	193245
#	205060
#
# Disc length: 3011 seconds
# Revision: 1
# Processed by: cddbd v1.5.2PL0 Copyright (c) Steve Scherf et al.
# Submitted via: dBpowerAMP V12.0
#
DISCID=d40bc110
DTITLE=Elkie Brooks - Nothin' But the Blues [dBP]
DYEAR=1996
DGENRE=Blues
TTITLE0=I Ain't Got Nothing But the Blues
TTITLE1=Baby Get Lost
TTITLE2=Blues for Mama
TTITLE3=Baby What You Want Me to Do
TTITLE4=Tell Me More and More and Then Some
TTITLE5=I'd Rather Go Blind
TTITLE6=I Wonder Who
TTITLE7=Ain't No Use
TTITLE8=Nobody But You
TTITLE9=I Love Your Lovin' Ways
TTITLE10=Bad Bad Whiskey
TTITLE11=Fine and Mellow
TTITLE12=Me and My Gin
TTITLE13=Mean and Evil Blues
TTITLE14=Trouble in Mind
TTITLE15=Please Send Me Someone to Love
EXTD=
EXTT0=
EXTT1=
EXTT2=
EXTT3=
EXTT4=
EXTT5=
EXTT6=
EXTT7=
EXTT8=
EXTT9=
EXTT10=
EXTT11=
EXTT12=
EXTT13=
EXTT14=
EXTT15=
PLAYORDER=
